<?xml version="1.0" encoding="UTF-8"?><svg id="a" xmlns="http://www.w3.org/2000/svg" viewBox="0 0 451.02 616.56"><defs><style>.b,.c{fill:#fff;}.d,.e{fill:#250f07;}.c,.f,.g,.e{fill-rule:evenodd;}.h{fill:#eb591f;}.f{fill:#9c3106;}.g{fill:#ccf;}</style></defs><path class="c" d="M65.28,171.3c-2.01-6.97-3.46-14.17-4.73-21.26-2.81-15.85-4.42-31.95-5.07-48.02-1.16-28.35-.79-87.25,30.16-100.32,10.69-4.51,22.68,.79,32.03,6.09,10.01,5.67,19.39,12.7,28.4,19.84,7.6,6.07,14.97,12.36,22.17,18.88,1.11-.94,2.32-1.76,3.66-2.44l14.23-7.34,6.49,14.66c1.45,3.2,3,6.58,4.71,9.89l8.87-14.34,12.84,20.95c1.56,2.55,4.08,4.71,6.46,6.52,2.41-1.81,4.93-3.97,6.49-6.52l12.84-20.95,8.84,14.34c1.7-3.32,3.29-6.69,4.71-9.89l6.49-14.66,14.26,7.34c1.33,.68,2.52,1.5,3.63,2.44,7.2-6.52,14.6-12.81,22.2-18.88,9.01-7.14,18.37-14.17,28.4-19.84,9.35-5.3,21.34-10.6,32-6.09,30.98,13.07,31.35,71.97,30.19,100.32-.65,16.07-2.3,32.17-5.1,48.02-1.25,7.09-2.72,14.29-4.71,21.26,4.39,2.49,8.67,5.33,12.67,8.22,7.14,5.16,15.22,11.76,20.18,19.08l11.34,16.78-19.3,6.09c-2.75,.88-5.5,1.67-8.25,2.47,2.69,3.29,5.3,6.66,7.82,10.09,6.6,8.96,14.14,20.18,17.21,30.95l6.89,24.46-14.23-3.23c.17,.4,.37,.79,.57,1.19,8.28,16.81,15.42,34.38,20.58,52.41,2.98,10.29,5.27,20.83,6.52,31.49l3.29,28.37-25.31-13.24c-8.5-4.45-16.87-9.13-25.26-13.75-4.31,33.7-13.89,71.29-34.07,97.82l-14.09,18.51-8.08-14.71c-11.99,18.43-28.63,34.13-44.87,48.5-12.3,10.91-25.03,21.43-36.74,32.97-6.8,6.72-13.01,13.61-18.11,21.71-4.71,7.51-8.45,15.85-12.1,23.92l-6.89,15.14-6.86-15.14c-3.69-8.08-7.4-16.41-12.13-23.92-5.07-8.11-11.31-15-18.11-21.71-11.71-11.54-24.41-22.05-36.74-32.97-16.21-14.37-32.88-30.08-44.87-48.5l-8.08,14.71-14.06-18.51c-20.18-26.53-29.79-64.12-34.07-97.82-8.39,4.62-16.78,9.3-25.26,13.75L0,399.68l3.29-28.37c1.22-10.66,3.54-21.2,6.49-31.49,5.19-18.03,12.33-35.6,20.58-52.41,.2-.4,.4-.79,.6-1.19l-14.26,3.23,6.92-24.46c3.03-10.77,10.6-22,17.21-30.95,2.52-3.43,5.13-6.8,7.82-10.09-2.78-.79-5.53-1.59-8.25-2.47l-19.3-6.09,11.34-16.78c4.93-7.31,13.01-13.92,20.15-19.08,4-2.89,8.31-5.73,12.7-8.22h0Z"/><path class="e" d="M253.64,76.19c4.79-6.92,9.24-16.33,11.65-21.74l3.26-7.31,7.11,3.66c2.86,1.47,4.82,4,6.18,6.8,1.25-1.13,2.47-2.27,3.71-3.43,7.8-7.11,15.85-14.03,24.09-20.61,8.59-6.83,17.86-13.78,27.44-19.19,6.92-3.94,17.35-9.07,25.34-5.7,26.7,11.25,26.5,69.31,25.54,93.03-.62,15.68-2.24,31.58-4.96,47.03-1.45,8.14-3.43,17.83-6.41,26.33,6.35,3,13.12,7.51,17.38,10.57,6.26,4.51,14,10.8,18.34,17.21l5.67,8.39-9.64,3.03c-6.43,2.04-12.95,3.74-19.47,5.5,.37,.4,.71,.79,1.05,1.19,4.96,5.61,9.72,11.51,14.17,17.55,5.9,7.99,13.29,18.94,16.02,28.52l3.46,12.25-12.42-2.81c-1.79-.43-3.57-.79-5.39-1.16,2.83,5.07,5.53,10.23,8.08,15.42,8.02,16.38,15.08,33.65,20.1,51.17,2.83,9.89,5.07,20.07,6.26,30.3l1.64,14.17-12.64-6.63c-11.79-6.15-23.36-12.76-35.04-19.11-3.46,35.74-12.64,77.47-33.82,105.31l-7.06,9.27-8.93-16.3c-11.4,22.82-31.44,41.78-50.06,58.25-12.39,11-25.23,21.63-37.02,33.25-17.4,17.18-22.17,26.73-31.8,47.91-9.61-21.17-14.4-30.73-31.78-47.91-11.79-11.62-24.66-22.25-37.05-33.25-18.6-16.47-38.66-35.43-50.03-58.25l-8.96,16.3-7.03-9.27c-21.17-27.84-30.36-69.56-33.82-105.31-11.71,6.35-23.27,12.95-35.04,19.11l-12.64,6.63,1.64-14.17c1.16-10.23,3.4-20.41,6.24-30.3,5.05-17.52,12.08-34.78,20.13-51.17,2.55-5.19,5.24-10.35,8.05-15.42-1.79,.37-3.6,.74-5.39,1.16l-12.39,2.81,3.46-12.25c2.69-9.58,10.12-20.52,16.02-28.52,4.45-6.04,9.21-11.93,14.17-17.55,.34-.4,.68-.79,1.02-1.19-6.49-1.76-13.04-3.46-19.45-5.5l-9.64-3.03,5.67-8.39c4.31-6.41,12.08-12.7,18.31-17.21,4.25-3.06,11.03-7.57,17.38-10.57-2.95-8.5-4.93-18.2-6.38-26.33-2.75-15.45-4.34-31.35-4.99-47.03-.96-23.73-1.16-81.78,25.57-93.03,7.99-3.37,18.43,1.76,25.34,5.7,9.55,5.41,18.82,12.36,27.44,19.19,8.25,6.58,16.3,13.49,24.09,20.61,1.22,1.16,2.47,2.3,3.68,3.43,1.36-2.81,3.34-5.33,6.21-6.8l7.11-3.66,3.26,7.31c2.41,5.41,6.83,14.83,11.65,21.74,.71-1.53,1.47-3,2.32-4.39l6.46-10.43,6.41,10.46c2.24,3.66,5.56,6.52,8.96,9.07,1.22,.88,2.61,1.81,3.97,2.81,1.39-.99,2.78-1.93,3.97-2.81,3.4-2.55,6.72-5.41,8.96-9.07l6.43-10.46,6.43,10.43c.85,1.39,1.62,2.86,2.35,4.39h0Z"/><path class="h" d="M335.65,409.41c9.78,7.71,15.39,22.37,17.77,25.94,14.14-30.05,19.7-73.22,20.75-106.44,22.54,4.51,30.27,10.89,36.28,14.03-6.77-27.67-22.73-66.36-43.34-91.5,8.67-.6,21.12,1.33,24.94,2.18-7.54-13.92-25.37-29.57-38.44-38.44,14.06-7.71,24.92-11.4,29.25-12.73-6.86-4.17-14.51-7.17-22.34-9.07-2.98,4.93-10.6,12.61-18.48,17.55,19.33-35.52,37.93-160.33,7.94-172.01-9.89-2.35-72.96,48.7-84.39,58.48,2.15-4.25,3.86-8.96,3.69-12.13-4.85,6.89-14.2,15.39-21.6,19.79-2.92-3.94-4.11-6.46-6.63-9.44-3.88,5.13-12.05,10.66-15.56,15.99-3.51-5.33-11.68-10.86-15.53-15.99-2.55,2.98-3.71,5.5-6.66,9.44-7.37-4.39-16.72-12.9-21.57-19.79-.17,3.17,1.53,7.88,3.66,12.13-11.4-9.78-74.49-60.83-84.39-58.48-29.99,11.68-11.37,136.49,7.97,172.01-7.88-4.93-15.53-12.61-18.51-17.55-7.82,1.9-15.45,4.9-22.34,9.07,4.37,1.33,15.22,5.02,29.25,12.73-13.07,8.87-30.87,24.52-38.44,38.44,3.86-.85,16.27-2.78,24.94-2.18-20.58,25.14-36.54,63.84-43.31,91.5,5.98-3.15,13.72-9.52,36.28-14.03,1.05,33.22,6.58,76.39,20.75,106.44,2.35-3.57,7.97-18.23,17.77-25.94,6.94,79.85,63.3,83.23,110.13,132.43,46.86-49.21,103.21-52.58,110.15-132.43h0Z"/><path class="d" d="M248.49,224.3c.77,3.8-1.64,19.47,6.24,6.92,43-68.49,92.95-24.29,48.44,2.49,5.75-9.98,13.46-21.6-2.01-16.24,2.01,20.92-19.47,42.83-43,38.86-1.16,7.37,.65,13.69,1.56,19.5-3.71-2.47-8.36-9.13-9.35-20.47-17.49,5.73-12.81-20.41-1.87-31.07h0ZM120.27,107.55c2.78-7.46,8.19-13.04,.74-17.69,.74-4.11,2.3-5.73,3.54-11.71-6.83-10.6-16.7-15.42-27.35-13.75,6.92,10.32,4.14,16.78,1.47,28.89,5.1,5.58,10.29,3,1.5,24.43,18.79,12.08,9.21,30.67,12.42,46.01,5.61-18,21.03-49.8,7.68-56.18h0Zm7.8-44.56c17.91,15.28,31.38,35.04,42.49,55.45-2.52-1.22-15.34-3.6-22.22-2.32,4.17,4.88,10.6,15.31,13.35,21.12-1.93-.31-11.11-1.19-22.11,1.19,3.94,3.74,6.92,11.76,11.48,15.51-9.89,4.14-16.16,16.16-20.58,21.86,11.96-.14,19.16,2.55,23.02,3.63-1.08-2.47-5.3-7.88-5.81-7.97,1.79-4.85,14.37-10.69,23.16-13.46-1.9-1.81-7.14-8.45-8.96-10.35,4.65,.71,12.98,2.21,17.66,2.83-.2-5.07-5.75-17.15-8.73-20.3,6.69,.88,19.84,4.85,24.43,7.51-4.73-32.03-50.66-66.02-67.18-74.69h0Zm31.46,230.88c2.44-1.33,9.24-7.2,17.57-10.37-11.28-5.5-30.7-10.52-43.65-10.37,1.16-.68,10.29-6.32,11.68-6.75-27.58-8.33-48.84,5.95-55.22,14.31,11.71-3.43,16.87-5.9,27.44-5.61-4.39,3.15-8.19,7.48-10.54,10.32,20.24-2.32,33.99,.03,41.98,1.93-2.55,1.59-10.12,7.2-12.25,9.35,12.73,1.62,27.41,8.16,33.7,10.94-1.28-4.28-4.31-8.93-10.71-13.75h0Zm65.96,65.08c3.52,1.22,14.23,1.81,18.51,1.28-8.31,3.68-11.03,2.47-18.51,4.34-7.48-1.87-10.2-.65-18.48-4.34,4.28,.54,15-.06,18.48-1.28h0Zm0-43.82c-7.2,1.45-21.09,5.81-23.5,7.82-.51-3.49-.54-7.37,.45-10.71-1.84,.85-8.7,5.5-9.95,18.68,5.19,9.75,16.53,17.21,24.29,19.3-11.34,1.96-35.91-12.56-33.79-23.78,1.45-7.57,3.51-13.97,7.51-23.39-42.6,16.61-8.36,74.52,34.98,73.5,43.37,1.02,77.61-56.89,35.01-73.5,3.97,9.41,6.04,15.82,7.48,23.39,2.15,11.23-22.42,25.74-33.79,23.78,7.8-2.1,19.13-9.55,24.32-19.3-1.25-13.18-8.11-17.83-9.98-18.68,.99,3.34,.99,7.23,.48,10.71-2.44-2.01-16.33-6.38-23.53-7.82h0Zm-22.96-90.82c-.79,3.8,1.62,19.47-6.24,6.92-43.03-68.49-92.98-24.29-48.44,2.49-5.75-9.98-13.49-21.6,2.01-16.24-2.04,20.92,19.45,42.83,43,38.86,1.16,7.37-.65,13.69-1.59,19.5,3.74-2.47,8.36-9.13,9.35-20.47,17.52,5.73,12.84-20.41,1.9-31.07h0Zm128.21-116.76c-2.78-7.46-8.22-13.04-.74-17.69-.77-4.11-2.3-5.73-3.57-11.71,6.86-10.6,16.72-15.42,27.35-13.75-6.89,10.32-4.14,16.78-1.47,28.89-5.1,5.58-10.26,3-1.5,24.43-18.79,12.08-9.18,30.67-12.39,46.01-5.61-18-21.03-49.8-7.68-56.18h0Zm-7.8-44.56c-17.91,15.28-31.38,35.04-42.52,55.45,2.55-1.22,15.34-3.6,22.25-2.32-4.2,4.88-10.63,15.31-13.35,21.12,1.93-.31,11.11-1.19,22.11,1.19-3.94,3.74-6.94,11.76-11.51,15.51,9.92,4.14,16.16,16.16,20.58,21.86-11.96-.14-19.16,2.55-22.99,3.63,1.08-2.47,5.27-7.88,5.81-7.97-1.79-4.85-14.37-10.69-23.19-13.46,1.93-1.81,7.14-8.45,8.99-10.35-4.68,.71-13.01,2.21-17.69,2.83,.2-5.07,5.78-17.15,8.76-20.3-6.69,.88-19.87,4.85-24.46,7.51,4.76-32.03,50.66-66.02,67.21-74.69h0Zm-31.46,230.88c-2.44-1.33-9.27-7.2-17.57-10.37,11.25-5.5,30.7-10.52,43.65-10.37-1.16-.68-10.32-6.32-11.71-6.75,27.61-8.33,48.84,5.95,55.25,14.31-11.71-3.43-16.89-5.9-27.44-5.61,4.39,3.15,8.19,7.48,10.52,10.32-20.21-2.32-33.96,.03-41.95,1.93,2.52,1.59,10.12,7.2,12.22,9.35-12.73,1.62-27.38,8.16-33.68,10.94,1.28-4.28,4.28-8.93,10.71-13.75h0Z"/><path class="b" d="M285.73,223.48c-9.55,5.07-17.38,11.88-23.47,20.81,9.86-.6,26.96-10.49,23.47-20.81h0Z"/><path class="b" d="M165.29,223.48c9.55,5.07,17.38,11.88,23.44,20.81-9.84-.6-26.96-10.49-23.44-20.81h0Z"/><path class="c" d="M94.85,311.38c-3.46,19.13-1.62,45.5,5.61,57.43,3.71-4.54,19.11-18.37,30.13-17.69-1.64,22.45,3.23,54.99,15.62,73.9,2.13-10.77,14.49-22.54,19.67-24.83,4.05,25.28,52.84,70.61,59.61,92.47,6.8-21.86,55.59-67.18,59.64-92.47,5.16,2.3,17.55,14.06,19.67,24.83,12.39-18.91,17.26-51.45,15.62-73.9,11-.68,26.42,13.15,30.1,17.69,7.26-11.93,9.1-38.3,5.61-57.43,9.35-5.02,20.24-2.86,27.3-.99-3.46-12.73-15.56-25.14-22.34-29.71-11.71-3.43-16.89-5.9-27.44-5.61,4.39,3.15,8.19,7.48,10.52,10.32-20.21-2.32-33.96,.03-41.95,1.93,2.52,1.59,10.12,7.2,12.22,9.35-12.73,1.62-27.38,8.16-33.68,10.94,1.28-4.28,4.28-8.93,10.71-13.75-4.96,.79-15.11,4.11-19.33,7.6-8.14-7.57-16.27-13.01-22.82-25.71-.43,14.37,5.22,26.28,6.21,29.4-4.73-2.47-7.46-3.71-12.64-3.71,1.79,2.72,4.71,7.57,5.64,10.8,1.87,.85,8.73,5.5,9.98,18.68-5.19,9.75-16.53,17.21-24.32,19.3,11.37,1.96,35.94-12.56,33.79-23.78-1.45-7.57-3.51-13.97-7.48-23.39,42.6,16.61,8.36,74.52-35.01,73.5-43.34,1.02-77.58-56.89-34.98-73.5-4,9.41-6.07,15.82-7.51,23.39-2.13,11.23,22.45,25.74,33.79,23.78-7.77-2.1-19.11-9.55-24.29-19.3,1.25-13.18,8.11-17.83,9.95-18.68,.96-3.23,3.86-8.08,5.67-10.8-5.19,0-7.91,1.25-12.64,3.71,.99-3.12,6.6-15.02,6.18-29.4-6.55,12.7-14.66,18.14-22.79,25.71-4.25-3.49-14.4-6.8-19.33-7.6,6.41,4.82,9.44,9.47,10.71,13.75-6.29-2.78-20.98-9.33-33.7-10.94,2.13-2.15,9.69-7.77,12.25-9.35-7.99-1.9-21.74-4.25-41.98-1.93,2.35-2.83,6.15-7.17,10.54-10.32-10.57-.28-15.73,2.18-27.44,5.61-6.77,4.56-18.88,16.98-22.34,29.71,7.06-1.87,17.91-4.03,27.27,.99h0Z"/><path class="g" d="M225.5,358.95c-3.49,1.22-14.2,1.81-18.48,1.28,8.28,3.68,11,2.47,18.48,4.34,7.48-1.87,10.2-.65,18.51-4.34-4.28,.54-15-.06-18.51-1.28h0Z"/><path class="f" d="M210.98,238.93c3.77,8.02,4.08,21.34-3.77,22.14,.48,6.35-3.09,31.75-4.76,35.86,4.88-1.96,9.18-2.66,13.86-2.98-3.6,5.67-10.29,16.27-9.21,23.78,2.89-.4,7.71-1.42,12.98-1.3-7.26,1.93-16.19,4.93-18.08,6.52-.51-3.49-.54-7.37,.45-10.71,.96-3.23,3.86-8.08,5.67-10.8-5.19,0-7.91,1.25-12.64,3.71,.99-3.12,6.6-15.02,6.18-29.4-6.55,12.7-14.66,18.14-22.79,25.71-4.25-3.49-14.4-6.8-19.33-7.6,2.15-1.16,7.74-5.9,14.77-9.18-1.73,2.15-4.08,6.55-4.2,7.82,4.31-1.98,20.92-9.52,17.21-28.77-26.02,1.11-42.55-22.31-47.14-30.56-.79,2.75-.51,7.51-.06,9.95-8.16-4.59-28.83-30.33-2.18-45.69-11.06,6.46-11.51,23.39,9.92,36.28-5.75-9.98-13.49-21.6,2.01-16.24-2.04,20.92,19.45,42.83,43,38.86,1.16,7.37-.65,13.69-1.59,19.5,3.29-2.18,7.26-7.57,8.84-16.55,.23-1.25,.4-2.55,.51-3.91,11.45,3.74,13.44-6.15,10.35-16.44h0Z"/><path class="g" d="M127.33,296.28c-2.41,1.79-7.17,9.55-7.94,14.12,10.69,0,25.06,7.28,36.03,7.51-5.07,24.38-5.41,33.96,10.37,59.98-.2-4.99,0-7.94,1.79-12.93,21.57,19.08,29.54,55.13,57.91,65.34,28.37-10.2,36.37-46.26,57.91-65.34,1.81,4.99,1.98,7.94,1.81,12.93,15.79-26.02,15.42-35.6,10.37-59.98,10.94-.23,25.34-7.51,36.03-7.51-.79-4.56-5.56-12.33-7.94-14.12,10.29-6.32,20.24-3.71,32.83-1.56-1.93-8.45-7.14-12.81-8.42-13.61,1.39-.71,4.59-1.67,9.27-1.53-9.21-2.83-14.34-4.76-23.7-4.51,4.39,3.15,8.19,7.48,10.52,10.32-20.21-2.32-33.96,.03-41.95,1.93,2.52,1.59,10.12,7.2,12.22,9.35-12.73,1.62-27.38,8.16-33.68,10.94-4.54,6.72-1.5,5.16-4.34,3.49-1.11-.65-3.46-1.53-5.73-2.18,25.71,21.34-6.01,68.57-45.21,67.63-39.17,.94-70.92-46.29-45.21-67.63-2.24,.65-4.62,1.53-5.7,2.18-2.83,1.67,.2,3.23-4.34-3.49-6.29-2.78-20.98-9.33-33.7-10.94,2.13-2.15,9.69-7.77,12.25-9.35-7.99-1.9-21.74-4.25-41.98-1.93,2.35-2.83,6.15-7.17,10.54-10.32-9.38-.26-14.51,1.67-23.73,4.51,4.68-.14,7.88,.82,9.3,1.53-1.28,.79-6.52,5.16-8.45,13.61,12.59-2.15,22.54-4.76,32.85,1.56h0Z"/><path class="g" d="M183,326.44c-2.13,11.23,22.45,25.74,33.79,23.78-7.77-2.1-19.11-9.55-24.29-19.3-5.41-5.24-6.21-9.27-6.21-16.58,0-.14,0-.28,.03-.4-1.47,4.31-2.49,8.22-3.32,12.5h0Z"/><path class="g" d="M267.99,326.44c2.15,11.23-22.42,25.74-33.79,23.78,7.8-2.1,19.13-9.55,24.32-19.3,5.39-5.24,6.18-9.27,6.18-16.58v-.4c1.45,4.31,2.47,8.22,3.29,12.5h0Z"/><path class="f" d="M240.04,238.93c-3.77,8.02-4.08,21.34,3.77,22.14-.48,6.35,3.06,31.75,4.76,35.86-4.9-1.96-9.21-2.66-13.89-2.98,3.63,5.67,10.32,16.27,9.24,23.78-2.89-.4-7.71-1.42-12.98-1.3,7.26,1.93,16.19,4.93,18.09,6.52,.51-3.49,.51-7.37-.48-10.71-.94-3.23-3.86-8.08-5.64-10.8,5.19,0,7.91,1.25,12.64,3.71-.99-3.12-6.63-15.02-6.21-29.4,6.55,12.7,14.68,18.14,22.82,25.71,4.22-3.49,14.37-6.8,19.33-7.6-2.15-1.16-7.77-5.9-14.8-9.18,1.76,2.15,4.08,6.55,4.22,7.82-4.31-1.98-20.95-9.52-17.21-28.77,25.99,1.11,42.55-22.31,47.14-30.56,.77,2.75,.48,7.51,.03,9.95,8.16-4.59,28.86-30.33,2.21-45.69,11.06,6.46,11.51,23.39-9.92,36.28,5.75-9.98,13.46-21.6-2.01-16.24,2.01,20.92-19.47,42.83-43,38.86-1.16,7.37,.65,13.69,1.56,19.5-3.29-2.18-7.26-7.57-8.84-16.55-.2-1.25-.37-2.55-.51-3.91-11.45,3.74-13.41-6.15-10.32-16.44h0Z"/><path class="f" d="M115.37,409.41c6.94,79.85,63.3,83.23,110.13,132.43,46.86-49.21,103.21-52.58,110.15-132.43,9.78,7.71,15.39,22.37,17.77,25.94,14.14-30.05,19.7-73.22,20.75-106.44,22.54,4.51,30.27,10.89,36.28,14.03-4.56-18.68-13.32-42.35-24.86-63.52-12.13-11.34-22.82-15.17-34.89-18.14,5.07,3.8,8.02,4.71,13.35,11.88-1.62-1.36-16.21-6.58-29.71-7.99,13.24,2.98,22.82,10.37,26.76,15.53,6.77,4.56,18.88,16.98,22.34,29.71-7.06-1.87-17.94-4.03-27.3,.99,3.49,19.13,1.64,45.5-5.61,57.43-3.68-4.54-19.11-18.37-30.1-17.69,1.64,22.45-3.23,54.99-15.62,73.9-2.13-10.77-14.51-22.54-19.67-24.83-4.05,25.28-52.84,70.61-59.64,92.47-6.77-21.86-55.56-67.18-59.61-92.47-5.19,2.3-17.55,14.06-19.67,24.83-12.39-18.91-17.26-51.45-15.62-73.9-11.03-.68-26.42,13.15-30.13,17.69-7.23-11.93-9.07-38.3-5.61-57.43-9.35-5.02-20.21-2.86-27.27-.99,3.46-12.73,15.56-25.14,22.34-29.71,3.94-5.16,13.52-12.56,26.76-15.53-13.52,1.42-28.09,6.63-29.74,7.99,5.33-7.17,8.31-8.08,13.38-11.88-12.08,2.98-22.79,6.8-34.89,18.14-11.54,21.17-20.3,44.84-24.86,63.52,5.98-3.15,13.72-9.52,36.28-14.03,1.05,33.22,6.58,76.39,20.75,106.44,2.35-3.57,7.97-18.23,17.77-25.94h0Z"/><path class="f" d="M90.45,193.38c-7.82,1.9-15.45,4.9-22.34,9.07,4.37,1.33,15.22,5.02,29.25,12.73-2.38,1.62-4.96,3.49-7.57,5.5,3.57-.51,11.79-2.81,16.1-3-3.23-4.93-10.29-9.58-12.67-12.59,2.52,.65,14.37,6.07,15.73,5.84-7.88-4.93-15.53-12.61-18.51-17.55h0Z"/><path class="f" d="M360.54,193.38c7.82,1.9,15.48,4.9,22.34,9.07-4.34,1.33-15.19,5.02-29.25,12.73,2.41,1.62,4.96,3.49,7.6,5.5-3.57-.51-11.82-2.81-16.13-3,3.23-4.93,10.29-9.58,12.7-12.59-2.55,.65-14.37,6.07-15.73,5.84,7.88-4.93,15.51-12.61,18.48-17.55h0Z"/><path class="f" d="M120.27,107.55c13.35,6.38-2.07,38.18-7.68,56.18-2.98-14.29,5.13-31.41-8.96-43.46,7.34,11.14,7.65,37.47-1.64,52.81,6.63-1.62,6.77-3.57,11.11-4.48-.77,2.18-.14,6.43,2.18,9.95,1.25-4.28,6.77-6.26,11-7.63-1.42,2.24-3.91,6.09-3.2,10.77,7.23-3.83,16.36-4.65,19.05-5.1-3.23-.51-7.09-.88-11.65-.82,4.42-5.7,10.69-17.72,20.58-21.86-4.56-3.74-7.54-11.76-11.48-15.51,11-2.38,20.18-1.5,22.11-1.19-2.75-5.81-9.18-16.24-13.35-21.12,6.89-1.28,19.7,1.11,22.22,2.32-11.11-20.41-24.58-40.17-42.49-55.45,3,4.05,10.03,17.77,10.69,26.11-8.87-13.18-10.43-16.02-25.97-22.17,4.45,2.32,8.48,6.09,11.76,11.23-1.25,5.98-2.81,7.6-3.54,11.71,7.46,4.65,2.04,10.23-.74,17.69h0Z"/><path class="f" d="M330.75,107.55c-13.35,6.38,2.07,38.18,7.68,56.18,2.98-14.29-5.16-31.41,8.93-43.46-7.34,11.14-7.63,37.47,1.67,52.81-6.63-1.62-6.77-3.57-11.11-4.48,.77,2.18,.11,6.43-2.21,9.95-1.22-4.28-6.75-6.26-11-7.63,1.45,2.24,3.94,6.09,3.23,10.77-7.26-3.83-16.36-4.65-19.08-5.1,3.26-.51,7.11-.88,11.65-.82-4.42-5.7-10.66-17.72-20.58-21.86,4.56-3.74,7.57-11.76,11.51-15.51-11-2.38-20.18-1.5-22.11-1.19,2.72-5.81,9.16-16.24,13.35-21.12-6.92-1.28-19.7,1.11-22.25,2.32,11.14-20.41,24.6-40.17,42.52-55.45-3,4.05-10.03,17.77-10.71,26.11,8.9-13.18,10.46-16.02,25.99-22.17-4.48,2.32-8.48,6.09-11.79,11.23,1.28,5.98,2.81,7.6,3.57,11.71-7.48,4.65-2.04,10.23,.74,17.69h0Z"/><path class="f" d="M161.89,147.63c1.81,1.9,7.06,8.53,8.96,10.35-8.79,2.78-21.37,8.62-23.16,13.46,.51,.09,4.73,5.5,5.81,7.97,14.91,9.84,31.12,22.85,34.36,25.74-13.38-24.18-21.63-31.78-23.92-33.28,3.8-2.55,10.49-4.28,16.67-3.09-.99-6.38-2.1-8.5-6.26-14,4.08,.62,13.15,8.42,15.39,11.82,1.84-8.39-2.1-21.57-3.57-24.94,5.05,0,13.52,8.33,17.94,13.75,.03-19.98-20.52-46.89-27.55-52.84,9.5,11.06,16.95,23.22,18.71,35.12-4.59-2.66-17.74-6.63-24.43-7.51,2.98,3.15,8.53,15.22,8.73,20.3-4.68-.62-13.01-2.13-17.66-2.83h0Z"/><path class="f" d="M289.13,147.63c-1.84,1.9-7.06,8.53-8.99,10.35,8.82,2.78,21.4,8.62,23.19,13.46-.54,.09-4.73,5.5-5.81,7.97-14.91,9.84-31.12,22.85-34.36,25.74,13.38-24.18,21.63-31.78,23.9-33.28-3.77-2.55-10.46-4.28-16.67-3.09,1.02-6.38,2.1-8.5,6.26-14-4.08,.62-13.12,8.42-15.36,11.82-1.87-8.39,2.1-21.57,3.57-24.94-5.07,0-13.55,8.33-17.97,13.75,0-19.98,20.55-46.89,27.58-52.84-9.52,11.06-16.95,23.22-18.74,35.12,4.59-2.66,17.77-6.63,24.46-7.51-2.98,3.15-8.56,15.22-8.76,20.3,4.68-.62,13.01-2.13,17.69-2.83h0Z"/></svg>