<?xml version="1.0" encoding="UTF-8"?><svg xmlns="http://www.w3.org/2000/svg" viewBox="0 0 1000 757.92"><defs><style>.d{fill:#231f20;}</style></defs><g id="a"/><g id="b"><g id="c"><g><path class="d" d="M764.99,435.31c0,147.12-118.64,266.38-264.99,266.38s-264.99-119.26-264.99-266.38c0-53.38,15.63-103.08,42.52-144.76H0v397.41c0,38.64,31.16,69.96,69.6,69.96H930.4c38.44,0,69.6-31.32,69.6-69.96V290.55h-277.53c26.89,41.68,42.52,91.38,42.52,144.76Z"/><path class="d" d="M500,214.62c-121.25,0-219.54,98.81-219.54,220.7s98.29,220.7,219.54,220.7,219.54-98.81,219.54-220.7-98.29-220.7-219.54-220.7Zm0,372.83c-83.58,0-151.34-68.11-151.34-152.14s67.76-152.14,151.34-152.14,151.34,68.11,151.34,152.14-67.76,152.14-151.34,152.14Z"/><path class="d" d="M930.4,112.71h-246.62l-30.06-80.39c-7.27-19.44-25.77-32.32-46.43-32.32h-214.58c-20.66,0-39.16,12.88-46.43,32.32l-30.06,80.39h-104.37v-17.59c0-9.13-7.36-16.53-16.44-16.53H108.97c-9.08,0-16.44,7.4-16.44,16.53v17.59h-22.93C31.16,112.71,0,144.03,0,182.67v66.53H310.44c48.12-49.51,115.26-80.26,189.55-80.26s141.44,30.75,189.56,80.26h310.44v-66.53c0-38.64-31.16-69.96-69.6-69.96Zm-336.36-52.22c0,9.99-8.06,18.09-18,18.09h-157.38c-9.94,0-18-8.1-18-18.09h0c0-9.99,8.06-18.1,18-18.1h157.38c9.94,0,18,8.1,18,18.09h0Z"/><path class="d" d="M390.71,423.68c-1.18,0-2.38-.14-3.58-.43-8.1-1.98-13.07-10.18-11.1-18.32,10.83-44.79,44.98-80.43,89.12-93.01,8.02-2.28,16.36,2.4,18.63,10.46,2.27,8.06-2.39,16.45-10.4,18.73-33.69,9.6-59.75,36.8-68.02,70.98-1.68,6.94-7.85,11.59-14.65,11.59Z"/></g></g></g></svg>