<?xml version="1.0" encoding="UTF-8"?><svg xmlns="http://www.w3.org/2000/svg" viewBox="0 0 98.18 110.09"><defs><style>.d{fill:#fff;}.e{fill:#007db7;}.f{fill:#f7f7f7;}.g{fill:#009de6;}</style></defs><g id="a"/><g id="b"><g id="c"><g><polygon class="e" points="89.17 101 49.09 110.09 9.01 101 0 0 98.18 0 89.17 101"/><polygon class="g" points="48.85 104.91 48.85 104.91 84.15 96.91 92.33 5.05 48.85 5.05 48.85 104.91"/><polygon class="f" points="19.17 17.21 20.25 29.33 67.02 29.33 65.42 47.34 34.28 47.34 34.28 59.46 64.34 59.46 62.85 76.95 48.75 80 35.35 77.01 35.35 77.01 34.81 70.99 23.64 69.12 25.31 86.04 48.96 91.33 74.1 85.53 80.29 17.21 19.17 17.21"/><polygon class="d" points="48.85 29.33 67.02 29.33 65.42 47.34 48.85 47.34 48.85 59.46 64.34 59.46 62.85 76.95 48.85 79.97 48.85 91.3 48.96 91.33 74.1 85.53 80.29 17.21 48.85 17.21 48.85 29.33"/></g></g></g></svg>