<?xml version="1.0" encoding="UTF-8"?><svg xmlns="http://www.w3.org/2000/svg" viewBox="0 0 1000 449.25"><defs><style>.d{fill:#231f20;}</style></defs><g id="a"/><g id="b"><g id="c"><path class="d" d="M775.37,0H224.63C100.57,0,0,100.57,0,224.63s100.57,224.63,224.63,224.63c75.39,0,142.07-37.16,182.8-94.15,13.44-18.8,35.21-30.03,58.32-30.03h68.51c23.15,0,44.86,11.2,58.32,30.03,40.73,56.99,107.41,94.15,182.8,94.15,124.06,0,224.63-100.57,224.63-224.63S899.43,0,775.37,0ZM324.05,233.97h-69.28v69.19c0,10.24-54.09,10.24-54.09,0v-69.28h-69.19c-10.24,0-10.24-54.09,0-54.09h69.28V110.59c0-10.24,54.09-10.24,54.09,0v69.28h69.19c10.24,0,10.24,54.09,0,54.09Zm377.7,3.44c-16.87,0-30.54-13.67-30.54-30.54s13.67-30.54,30.54-30.54,30.54,13.67,30.54,30.54-13.67,30.54-30.54,30.54Zm70.47,70.48c-16.87,0-30.54-13.67-30.54-30.54s13.67-30.54,30.54-30.54,30.54,13.67,30.54,30.54-13.67,30.54-30.54,30.54Zm0-140.95c-16.87,0-30.54-13.67-30.54-30.54s13.67-30.54,30.54-30.54,30.54,13.67,30.54,30.54-13.67,30.54-30.54,30.54Zm70.47,70.47c-16.86,0-30.54-13.67-30.54-30.54s13.67-30.54,30.54-30.54,30.54,13.67,30.54,30.54-13.67,30.54-30.54,30.54Z"/></g></g></svg>