<?xml version="1.0" encoding="UTF-8"?><svg xmlns="http://www.w3.org/2000/svg" viewBox="0 0 2910.38 3965.3"><defs><style>.d{fill:#fff;}.d,.e,.f,.g,.h,.i,.j{fill-rule:evenodd;}.e{fill:#c23e11;}.f{fill:#a6320c;}.g{fill:#f15a27;}.h{fill:#e3592a;}.i{fill:#d1d1d1;}</style></defs><g id="a"/><g id="b"><g id="c"><g><path class="j" d="M815.81,2630.92c-24.06-5.4-48-11.36-71.76-17.93l-241.32-66.7-34.99-1.52c-44.96-3.88-87.17-13.76-129.53-29.17-180.89-65.79-251.88-170.27-338.21-326.51,188.33-148.05,474.08-369.66,630.35-541.62-24.95-101.81-8.69-210.29,35.57-304.71,45.25-96.53,140.41-188.91,220.44-260.19l66.49-140.49c28.29-58.41,51.11-119.68,72.14-181.03,70.21-204.86,120.63-534.7,173.9-761.06,188.13,157.14,336.49,267.23,411.35,591.04,24.44-75.4,43.91-152.41,58.07-230.38l.15-.83L1750.32,14.56c304.7,272.72,544.57,521.69,522.21,979.25,57.27,37.83,176.96,157.29,222.26,206.71,243.59,265.74,286.33,428.52,395.55,744.89l20.05,58.08-182.88-52.84c89.3,326.2,14.13,557.29-52.77,872.75l-158.12-182.58c-109.94,240.99-290.94,435.49-523.1,566.11-219.68,123.6-439.45,303.29-582.82,512.14l-169.03,246.23-165.84-248.39c-135.01-202.2-211.01-458.99-127.44-696.4,89.67-254.74,242.69-389.8,304.82-572.21-75.56,34.35-107.3,83.78-146.67,154.64-35.2,63.36-60.67,109.3-99.12,170.63-33.8-25.29-166.49-127.72-191.61-142.65h0Z"/><path class="h" d="M353.55,2106.09c160.03-130.98,388.82-328.11,452.61-433.9,0,0-73.93-105.96,0-263.67,73.93-157.71,460.82-431.25,460.82-431.25,0,0-105.96,167.57-123.21,280.93,0,0,229.19-294.48,423.87-417.69,0,0-93.64,205.77-91.17,343.77,0,0,290.79-349.92,359.79-896.99,0,0,418.93,418.93,236.57,921.64,0,0-17.25-372.11-128.14-519.97l-133.08,300.64-12.32-101.04-118.23,293.25s150.27,62.84,202.02,168.81c0,0-12.32-144.16-59.14-224.25,0,0,182.35,108.44,256.28,231.65,0,0,72.69-114.59,104.73-236.57,0,0,353.61,268.6,496.54,657.96,0,0-146.62-87.48-241.5-97.34,0,0,251.35,336.38,152.78,834.16,0,0-46.82-116.31-139.23-193.69,0,0-54.21,478.32-535.98,749.39-481.77,271.07-670.29,616.07-670.29,616.07,0,0-261.21-308.03-152.78-616.06,108.43-308.04,312.95-414.49,341.3-749.4l135.54-99.55s-363.47,38.2-466.97,129.38c-103.5,91.18-135.54,224.25-135.54,224.25,0,0-36.96-78.85-115.82-96.1-78.86-17.25-167.57-48.05-167.57-48.05,0,0,263.7-176.81,420.18-189.13,0,0-192.21-3.69-328.98,57.91-101.89,45.89-222.93,132.78-393.19,65.85,147.57-80.78-29.89-261.01-29.89-261.01h0Z"/><path class="d" d="M1532.81,1106.51c88.11-131.89,253.62-424.12,303.45-819.23,0,0,14.14,14.15,36.04,40.29-92.07,519.28-339.48,778.95-339.48,778.95h0Z"/><path class="d" d="M1218.29,1168.09c83.48-96.98,223.61-248,349.36-327.6,0,0-3.73,8.21-9.68,22.41-59.71,33.47-338.67,304.21-339.68,305.18h0Z"/><path class="e" d="M1901.4,363.9c109.81,143.14,307.16,470.85,171.43,845.02,0,0-17.25-372.1-128.14-519.96l-133.08,300.64-12.32-101.04-118.23,293.25s150.27,62.84,202.02,168.8c0,0-12.32-144.15-59.14-224.25,0,0,182.35,108.44,256.28,231.65,0,0,72.69-114.59,104.73-236.57,0,0,29.88,22.72,75.75,64.44-29.25,110.79-145.96,266.16-145.96,266.16-36.32-78.87-203.41-189.9-203.41-189.9,12.45,71.6-9.34,132.83-9.34,132.83-108.96-117.26-320.66-196.12-320.66-196.12,281.34-341.89,320.01-834.08,320.08-834.96h0Z"/><path class="f" d="M2143.91,1236.18c15.39-34.85,30.43-74.38,41.03-114.72,0,0,353.61,268.6,496.54,657.96,0,0-146.62-87.48-241.5-97.34,0,0,251.35,336.38,152.78,834.16,0,0-46.82-116.31-139.23-193.69,0,0-54.21,478.32-535.99,749.39-481.77,271.07-670.29,616.07-670.29,616.07,0,0,41.23-260.04,456.31-608.71,415.08-348.67,676.58-605.6,614.32-1071.61,0,0,132.84,61.91,186.8,163.61,0,0-117.89-477.9-283.24-663.14,0,0,77.83,2.08,159.81,55,0,0-120.51-220.49-237.35-326.98h0Z"/><path class="d" d="M353.55,2106.08c160.03-130.98,388.82-328.1,452.61-433.9,0,0-73.93-105.96,0-263.67,73.93-157.72,460.82-431.25,460.82-431.25,0,0-380.09,347.28-431.15,474.92-51.06,127.64,19.93,222.08,19.93,222.08-141.13,217.92-502.21,431.82-502.21,431.82h0Z"/><path class="d" d="M1247.27,3688s-261.21-308.03-152.78-616.06c108.43-308.04,312.95-414.49,341.3-749.4l135.54-99.55s-363.47,38.2-466.97,129.38c-103.5,91.18-135.54,224.25-135.54,224.25,0,0-36.96-78.85-115.82-96.1-78.86-17.25-167.57-48.05-167.57-48.05,0,0,263.7-176.81,420.18-189.13,0,0-192.21-3.69-328.98,57.91-101.89,45.89-222.93,132.77-393.18,65.85,50.07-27.41,62.69-66.28,57.55-105.67h.02s505.71-207.82,614.14-225.07c108.43-17.25,305.57,36.96,305.57,36.96,0,0-97.33-107.18-194.67-131.83,0,0,337.61-2.48,556.93,131.83,0,0-41.93-124.43-41.93-209.45,0,0,271.1,124.45,351.19,218.09l56.68-218.09s266.13,459.6-123.22,770.09c-389.36,310.5-673.99,664.01-718.44,1054.04h0Z"/><path class="i" d="M1247.27,3688s-261.21-308.03-152.78-616.06c108.43-308.04,312.95-414.49,341.3-749.4l135.54-99.55s-363.47,38.2-466.98,129.38c-103.5,91.18-135.53,224.25-135.53,224.25,0,0-36.96-78.85-115.82-96.1-78.86-17.25-167.57-48.05-167.57-48.05,0,0,263.7-176.81,420.18-189.13,0,0-192.21-3.7-328.98,57.91-81.36,36.65-174.93,99.41-296.02,89.16,.57-.27,293.19-141.24,374.05-196.19,80.94-55,528.24-73.68,528.24-73.68l-102.33,64.34s304.66-47.75,568.24,6.22l-87.17,31.13s30.45,236.59-138,469.03l-51.89-74.71s-503.53,387.12-324.49,1071.46h0Z"/><path class="g" d="M1092.07,1009.98s194.57-401.68,174.91-761.46c0,0,214.48,231.64,211.98,552l-161.41,85.02,62.84-149.09s-120.75,195.91-288.32,273.54h0Z"/><path class="d" d="M1092.07,1009.98s194.57-401.68,174.91-761.47c0,0,14.64,15.83,36.21,44.88,17.66,336.9-211.13,716.59-211.13,716.59h0Z"/><path class="e" d="M1354.02,369.57c59.11,98.62,126.35,250.75,124.95,430.94l-161.41,85.02,62.84-149.09s-31.77,51.54-85.32,112.22c66.04-163.88,58.95-479.09,58.95-479.09h0Z"/><path class="j" d="M835.83,1898.38c118.7-232.67,300.23-371.9,547.07-414l-166.34,113.36c106.81,139.06-107.19,238.08-256.29,216.86l-124.44,83.79h0Z"/><path class="d" d="M1010.04,1753.62c13.47-.38,26.92-1.76,39.93-3.9,35.48-5.84,119.83-31.58,130.78-72.14,3.8-14.07-6.7-30.52-14.75-41.01l-5.14-6.7c-56.39,33.07-106.5,74.45-150.82,123.74h0Z"/><path class="d" d="M969.16,1636.72s169.8-142.8,327.91-196.05c0,0-152.54-18.15-327.91,196.05h0Z"/><path class="d" d="M329.08,2120.54l-131.79,93.52c23.51,27.77,51.21,52.48,85.09,72.64-17.61-21.95-34.11-44.87-46.18-71.66l92.87-94.49h0Z"/></g></g></g></svg>