<?xml version="1.0" encoding="UTF-8"?><svg id="a" xmlns="http://www.w3.org/2000/svg" viewBox="0 0 374.13 396.54"><defs><style>.b{fill:#fff;}.b,.c,.d,.e{fill-rule:evenodd;}.c{fill:#b55f19;}.d{fill:#612900;}.e{fill:#f58220;}</style></defs><path class="b" d="M224.29,396.54c-5.14,0-9.93-2.64-12.68-6.99-2.79-4.41-3.08-9.96-.77-14.64,7.06-14.32,2.99-32.87-4.21-49.12-.36,.3-.73,.59-1.11,.87-2.68,2.03-5.87,3.04-9.05,3.04-3.5,0-6.98-1.22-9.79-3.63-5.35-4.61-6.77-12.33-3.4-18.53,.79-1.46,.5-3.82-.72-5.88-.69-1.16-1.99-2.76-4.32-3.93-2.1,2.51-5.02,4.35-8.41,5.06-2.35,.5-5.16,1.52-8.09,2.88,.77,1.66,1.4,3.41,1.86,5.24,1.33,5.23-.25,10.76-4.14,14.5-2.83,2.73-6.58,4.19-10.4,4.19-1.36,0-2.72-.18-4.06-.56-.09,0-.27-.02-.57-.02-4.27,0-12.39,2.39-20.24,4.7-11.85,3.48-25.27,7.43-38.07,7.43h0c-19.49,0-33.81-9.68-40.32-27.26-2.6-7.01-2.43-13.56-1.21-19.06-5.5-1.38-10.48-3.44-14.92-6.18-19.82-5.87-30.27-21.61-27.81-41.5-3.13-6.7-2.31-13.5,2.45-20.24,7.41-10.5,15.53-21.46,23.38-32.05,7.62-10.28,14.86-20.05,20.51-28.15,1.35-7.22,2.83-14.43,4.26-21.44,1.07-5.23,2.18-10.65,3.21-15.96,1.17-5.99,5.85-10.68,11.83-11.85,.96-.19,1.93-.28,2.89-.28,.29,0,.58,0,.87,.03,4.02-6.42,8.5-11.63,13.66-17.35,2.9-3.21,6.97-4.95,11.13-4.95,1.69,0,3.4,.29,5.05,.88,1.74,.62,3.31,1.55,4.67,2.7,.97-.58,1.93-1.17,2.9-1.77,.31-1.14,.77-2.26,1.36-3.33,6.35-11.39,9.98-32.49,1.11-57.56-1.54-4.36-.99-9.19,1.51-13.09,2.5-3.9,6.65-6.42,11.26-6.85,2.45-.22,4.9-.34,7.28-.34,10.65,0,20.74,2.29,29.92,6.73-2.34-4.23-2.52-9.38-.37-13.81C163.21,3.45,168.24,.2,173.83,.03c.79-.02,1.59-.03,2.39-.03,20.9,0,43.69,8.15,65.92,23.58,8.93,6.2,17.58,13.44,25.38,21.17,.94-.18,1.91-.28,2.87-.28,1.25,0,2.51,.16,3.76,.48,4.07,1.05,5.21,1.38,6.61,1.79,.65,.19,1.36,.4,3.05,.86,2.53,.69,4.83,2.02,6.69,3.88,25.99,26.02,49.8,63.42,65.32,102.6,16.82,42.47,22.3,82.81,15.44,113.6-1.32,5.92-6.07,10.45-12.01,11.5-8.28,28.74-31.09,61.26-64.2,79.44-2.26,1.24-4.75,1.85-7.22,1.85-3.48,0-6.93-1.21-9.7-3.55-4.2,8.05-9.27,15.48-15.21,21.66-11.1,11.56-24.39,17.77-38.44,17.96-.07,0-.13,0-.2,0Z"/><path class="d" d="M17.07,246.92c-1.68,9.14-.34,22.32,16.98,27.39,.53,.1,1.04,.19,1.52,.26,6.76,4.9,15.7,7.15,25.7,7.32l2.25,6.22c-3.9,6.52-6.32,13.37-3.66,20.57,14.32,38.65,70.01,.26,89.19,5.92-2.07-8.17-9.5-10.63-11.46-11.26,8.09-6.95,20.16-13.32,29.13-15.22-2.65-.56-6.59-1.49-16.87-.4,3.02-1.45,7.14-3.38,11.92-5.52h0c28.99-6.25,42.69,17.75,34.67,32.5,8.71-6.59,9.74-17.12,6.02-25.31,15.31,20.18,37.15,61,21.8,92.15,35.23-.47,54.78-54.63,53.92-86.48,12.42,12.1,15.62,34.08,9.62,50.41,42.94-23.57,63.32-71.72,59.37-95.02,5.62,6.59,6.77,9.3,9.42,13.96,13.27-59.5-27.01-152.56-76.73-202.34-4.66-1.26-2.61-.83-9.49-2.61l6.84,20.57c-.85-1.32-1.74-2.65-2.66-3.97-18.21-26.11-59.91-62.23-100.3-61.04,8.64,11.64,11.87,34.41,9.52,51.71-3.51-6.36-19.03-39.53-58.47-35.91,9.77,27.61,6.96,53.53-2.15,69.87l15.64-5.34c-14.16,8.87-27.14,17.97-42.22,25.26l-.51-10.71c-8.87,9.82-14.52,16.92-19.68,31.4l-5.98-9.13c-2.63,13.51-5.58,26.91-8.04,40.42-11.51,16.78-30.44,41.19-45.8,62.96-4.09,5.79,1.21,5,.5,11.36h0Z"/><path class="e" d="M118.83,298.98c7.33-7.69,22.45-17.28,38.77-25.24-19.41,3.01-43.66,17.69-63.85,23.22-3.42,1-14.76,.99-19.11-1.5-.58,1.99-3.35,5.52-2.38,7.94,8.28,20.71,43.07,6.03,57.88,4.62l-9.09-1.73c5.17-4.09,7.76-5.95,13.47-10.44-5.06,1.32-8.97,1.64-15.67,3.14h0Z"/><path class="b" d="M28.86,263.96c-5.49-2.72-5.44-6.83-5.02-11.36,4.62,2.37,3.74,6.79,5.02,11.36h0Z"/><path class="e" d="M31.38,229.14l41.66-52.03,2.55-17.68,3.57,7.31c1.96-9.64,4.09-23.04,10.54-30.6l-.17,2.89c29.38-15.35,67.21-41.02,98.4-51.38l-1.26,16.2c13.05-18.65,12.38-53.23,5.87-74.41,22.88,7.16,54.3,30.14,69,51.52,16.83,24.48,19.67,50.52,20.14,57.68,4.73-16.93,4.1-27.01,3.07-46.08l8.44,2.25s21,29.63,33.37,63.38c12.37,33.75,14.62,71.25,14.62,71.25,0,0-19.19-18.68-67.92-32.77,21.53,22.73,27.76,48.52,23.89,79.13-16.49-27.5-116.08-50.11-147.71-46.59,0,0-13.94,11.56-20.74,15.3-6.8,3.74-52.35,27.71-71.22,27.88-9.53,.09-32.45-14.91-14.03-20.19,1.31-.35,2.61-.7,3.92-1.03,0,0,4.78-1.93,5.89-5.58,2.89-9.57,5.04-10.64,11.02-18.97-10.55,6.57-17.51,10.49-31.77,7.85-4.91-.91-5.82,.16-1.14-5.32h0Z"/><path class="b" d="M204.57,232.42c19.21,6,28.52,12.65,34.08,27.12-14.03-12.43-77.87-25.04-92.77-19.46l3.57-10.88c-17.22,22.23-72.48,53.28-100.21,41.05-9.77-4.31-19.83-14.01-5.81-18.05l1.18-.32c.14-.04,.28-.07,.42-.11,1.4-.37,2.35-.61,2.35-.61,0,0,4.78-1.93,5.89-5.58,2.89-9.57,5.04-10.64,11.02-18.97h0l18.68-15.26,24.49-22.58,21.25-6.12,19.89-5.27,7.46,2.18,8.86-22.92,21.23-17.88-6.61,17.49c30.42-3.02,57.75,2.57,73.6,17.89-13.1-1.82-26.27,5.17-30.55,7.1,25.79,2.33,42.64,19.24,52.82,45.09-12.88-10.36-36.07-10.04-53.82-4.38,10.45-.44,22.65,.75,35.13,5.65-13.14-1.72-42.23-.68-52.15,4.8h0Z"/><polygon class="e" points="99.48 207.06 106.78 199.92 64.29 226.61 110.59 185.6 132.64 181.53 142.18 179.15 156.07 179.56 128.68 202.31 136.28 189.27 113.83 204.68 123.71 192.53 99.48 207.06 99.48 207.06"/><polygon class="c" points="105.84 166.31 128.17 149.29 128.72 151.55 161.3 132.75 141.63 153.48 149.44 159 152.85 165.54 81.9 212.23 104.09 183.54 105.84 166.31 105.84 166.31"/><path class="d" d="M132.61,151.86l-20.4,14.45-1.19,14.96-28.05,30.09,11.9-7.65,32.64-17.51,28.56-6.63c16.03-22.43,21.16-28.72,30.09-40.8l-36.72,20.23-24.99,5.27,8.16-12.41h0Z"/><path class="c" d="M204.68,46.81s21.76,10.2,34.34,41.31c12.58,31.11,10.2,45.21,10.2,45.21,0,0-2.89-9.52-5.44-12.75-2.55-3.23-31.79-13.77-31.79-13.77,0,0,1.36-7.82,1.53-11.22,.17-3.4-5.1,9.01-5.1,9.01l1.7-16.83-10.54,17.34s13.26-31.11,5.1-58.3h0Z"/><path class="b" d="M148.07,169.48s-14.26,2.48-17.36,2.97c-14.5,2.27,11.25,12.68,17.36-2.97h0Z"/><path class="b" d="M70.21,275.86c-1.35,2.9-.98,4.93,.05,7.35,4.6,10.79,21.24,8.51,29.67,5.3,3.92-1.49,24.03-12.04,27.22-13.68-8.66,3.73-17.08,7.67-23.49,4.58,0,0,0,4.21-1.18,4.44-7.93,1.57-13.62-.45-19.74-9.02-2.04,6.03,.69,10.04,.69,10.04-3.08-.35-11.02-.11-13.22-9.01h0Z"/><path class="c" d="M174.05,77.46c-6.23,2.5-13.87,6.58-22.16,11.36,4.11-21.86-12.47-45.74-12.47-45.74,16.02,4.01,27.93,19.27,34.63,34.39h0Z"/><path class="b" d="M255.99,80.27c3.08,4.81,19.07,27.46,14.19,52.18l-6.54-7.48-5.27,16.32c1.2-15.62,1.04-24.79-1.36-35.19,1.83,1.6,3.47,4.61,5.78,7.22-.46-7.57-3.39-24.36-6.8-33.06h0Z"/><path class="e" d="M147.57,49.19c2.51,1.97,15.09,10.97,17.05,24.89l-4.82-2.74,.22,9.56c-2.24-8.45-4-13.25-7.17-18.29,1.26,.51,2.67,1.79,4.37,2.74-1.63-3.9-6.26-12.21-9.65-16.17h0Z"/><path class="b" d="M43.15,248.73c2.2-.62,4.24-.21,4.56,.92,.32,1.13-1.21,2.55-3.41,3.17-2.2,.62-4.24,.21-4.56-.92-.32-1.13,1.21-2.55,3.41-3.17h0Z"/><path class="e" d="M225.46,288.51c5,4.16,23.35,16.14,24.29,45.64l-7.43-4.55c2.41,13.94,.71,20.55-5.35,40.38,4.58-29.16-4.68-49.63-8.84-58.73,2.92,1.37,5.59,3.98,9.3,6.23-1.03-6.66-6.31-21.38-11.98-28.97h0Z"/></svg>