<?xml version="1.0" encoding="UTF-8"?><svg xmlns="http://www.w3.org/2000/svg" viewBox="0 0 61.33 74.58"><defs><style>.l{fill:#ffcd99;}.l,.m,.n,.o,.p,.q{fill-rule:evenodd;}.m{fill:#e24d01;}.n{fill:#fcf2ed;}.o{fill:#fd7414;}.p{fill:#3b1c0b;}.q{fill:#ffedbb;}</style></defs><g id="a"/><g id="b"><g id="c"><path class="q" d="M30.67,22.98c.21,0,.32,0,.63,.03,.31,.04,.42-.28,.5-.68,.08-.4,6.84-19.9,20.9-22.33,0,0-1.1,6.31-.8,10.06,.29,3.75,.63,5.6,.8,8.07,0,0,.6-2.17,1.21-3.08,0,0,4.17,7.04,3.49,15.67,0,0,1.64-1.85,2.48-3.86,0,0,4.43,9.76-2.17,22.65,0,0,1.43-.56,2.91-1.86,0,0-1.2,13.39-14.5,16.78,0,0-2.3,2.94-5.12,3.57,0,0-2.59,4.75-5.51,6.04-2.44,1.08-3.15,.26-4.83,.26s-2.38,.82-4.83-.26c-2.92-1.29-5.51-6.04-5.51-6.04-2.82-.63-5.12-3.57-5.12-3.57C1.91,61.03,.71,47.64,.71,47.64c1.48,1.3,2.91,1.86,2.91,1.86C-2.97,36.61,1.45,26.86,1.45,26.86c.85,2.01,2.48,3.86,2.48,3.86-.68-8.63,3.49-15.67,3.49-15.67,.61,.91,1.21,3.08,1.21,3.08,.18-2.47,.51-4.32,.8-8.07,.29-3.75-.8-10.06-.8-10.06,14.06,2.43,20.82,21.93,20.9,22.33,.08,.4,.19,.72,.5,.68,.31-.04,.42-.03,.63-.03Z"/></g><g id="d"><path class="o" d="M30.67,72.37c-6.02,0-7.6-5.87-8.29-7.95-.69-2.08-2.05-1.66-2.05-1.66-1.26,1.31-4.48-.39-4.48-.39-7.19-3.11-10.13-8.55-10.13-8.55,1.46-.51,3.62-.54,3.62-.54-6.5-7.73-5.68-18.29-5.68-18.29,1.27,2.05,4.12,2.84,4.12,2.84-1.48-6.46,0-12.34,0-12.34,.22,1.12,3.43,1.37,3.43,1.37,1.76-4.05,1.56-15.45,1.68-19.55,.12-4.09,4.59,.01,9.11,6.04,4.52,6.02,4.92,13.39,6.01,13.51,1.09,.12,1.78,0,2.67,0s1.58,.12,2.67,0c1.09-.12,1.49-7.49,6.01-13.51,4.52-6.02,8.99-10.13,9.11-6.04,.12,4.09-.08,15.49,1.68,19.55,0,0,3.21-.25,3.43-1.37,0,0,1.48,5.88,0,12.34,0,0,2.85-.79,4.12-2.84,0,0,.82,10.56-5.68,18.29,0,0,2.16,.03,3.62,.54,0,0-2.94,5.44-10.13,8.55,0,0-3.22,1.71-4.48,.39,0,0-1.36-.42-2.05,1.66-.69,2.08-2.27,7.95-8.29,7.95Z"/></g><g id="e"><path class="n" d="M30.67,67.26c1.37,0,2.86,.02,4.12-1.15,1.27-1.17,2.4-3.03,2.01-6.53,0,0,1.72,2.71,.82,6.76-.91,4.05-4.33,5.53-6.95,5.53s-6.05-1.48-6.95-5.53c-.91-4.05,.82-6.76,.82-6.76-.39,3.5,.74,5.36,2.01,6.53,1.27,1.17,2.75,1.15,4.12,1.15Z"/></g><g id="f"><path class="l" d="M34.96,50.7c-.33,.05-.92,.14-1.33-.13-.41-.27-.45-1.36,.32-2.3,.76-.94,2.05-1.77,3.27-3.78,1.23-2.01,3.48-4.2,5.42-4.22s2.97,1.69,.41,4.22c-2.6,2.57-6.1,5.89-8.09,6.21Z"/><path class="l" d="M26.38,50.7c.33,.05,.92,.14,1.33-.13,.41-.27,.45-1.36-.32-2.3-.76-.94-2.05-1.77-3.27-3.78-1.23-2.01-3.48-4.2-5.42-4.22s-2.97,1.69-.41,4.22c2.6,2.57,6.1,5.89,8.09,6.21Z"/></g><g id="g"><path class="m" d="M30.67,52.62c-.32,0-.72-.07-.73-.98s-.17-1.42-.77-2.15c-.59-.73-.5-1.21-.13-1.39s.73,.12,1.07,.43c.34,.31,.48,.33,.55,.33s.21-.02,.55-.33c.34-.31,.7-.6,1.07-.43s.46,.66-.13,1.39c-.59,.73-.76,1.24-.77,2.15,0,.91-.41,.98-.73,.98Zm0,5.38c-.9,0-2.36,.3-2.95,1.09-.58,.79-.78,.57-1.25,.7-.47,.13-.74,.81-.9,2.02-.16,1.21-.71,1.78-.99,2.71-.27,.93,0,2.21,0,2.21-3.25-3.64-.6-8,.38-10.18,.98-2.19-1.83-3.96-5.22-6.56-3.39-2.6-5.09-4.73-5.75-5.92-.35-.64,1.14-1.16,1.78-1.26,1.51-.26,3.19,1.07,4.43,2.59,1.76,2.17,3.08,2.89,5.08,3.81,2,.92,3.07,2.67,3.52,3.51,.45,.85,.29,1.3,0,1.66-.29,.36-.55,.55-.55,.55,.82,.15,1.1-.53,1.49-.81,.39-.28,.77-.26,.92-.26s.53-.02,.92,.26c.39,.28,.66,.96,1.49,.81,0,0-.26-.2-.55-.55-.29-.36-.45-.81,0-1.66,.45-.85,1.52-2.59,3.52-3.51s3.32-1.64,5.08-3.81c1.24-1.53,2.92-2.85,4.43-2.59,.64,.11,2.13,.63,1.78,1.26-.66,1.2-2.36,3.33-5.75,5.92-3.39,2.6-6.2,4.37-5.22,6.56,.98,2.19,3.63,6.54,.38,10.18,0,0,.27-1.29,0-2.21-.27-.93-.82-1.5-.99-2.71-.16-1.21-.43-1.89-.9-2.02-.47-.13-.66,.08-1.25-.7-.58-.79-2.05-1.09-2.95-1.09ZM4.45,37.1s1.6,5.47,5.15,9.53c3.54,4.06,11.08,8.45,14.67,10.19l-1.57,5.94-3.56,.57-3.71-1.68s-8.6-3.91-9.45-7.26l3.62-1.21s-7.69-10.08-5.15-16.09Zm52.43,0s-1.6,5.47-5.15,9.53c-3.54,4.06-11.08,8.45-14.67,10.19l1.57,5.94,3.56,.57,3.71-1.68s8.6-3.91,9.45-7.26l-3.62-1.21s7.69-10.08,5.15-16.09ZM8.64,27.83s.18,1.25,1.43,4.29c1.26,3.05,2.28,4.14,3.41,5.7,1.13,1.57,1.49,2.72,.82,3.66-.67,.95-2.76,.77-3.47,.1-.71-.67-4.81-9.32-2.19-13.76Zm44.06,0s-.18,1.25-1.43,4.29c-1.26,3.05-2.28,4.14-3.41,5.7-1.13,1.57-1.49,2.72-.82,3.66,.67,.95,2.76,.77,3.47,.1,.71-.67,4.81-9.32,2.19-13.76Zm-33.91,7.78s1.07,.62,1.46-1.2c.39-1.81-.59-4.74-.5-6.87,.09-2.13,.22-10.33-4.31-15.96,0,0,.7,4.91,.79,9.39,.09,4.49-2.54,12.47,2.56,14.63Zm23.76,0s-1.07,.62-1.46-1.2c-.39-1.81,.59-4.74,.5-6.87-.09-2.13-.22-10.33,4.31-15.96,0,0-.7,4.91-.79,9.39-.09,4.49,2.54,12.47-2.56,14.63Z"/></g><g id="h"><path class="l" d="M30.67,60.99c.52,0,2.19,.03,3.28,1.12,1.15,1.16,2.06,4.4-3.28,5.74-5.34-1.34-4.43-4.58-3.28-5.74,1.09-1.09,2.76-1.12,3.28-1.12Zm0-2.15c.39,0,1.15,0,2.25,.56,1.1,.57,1.26,1.65,.76,1.58-.5-.07-1.06-.64-3.01-.64s-2.51,.57-3.01,.64c-.5,.07-.34-1.01,.76-1.58,1.1-.57,1.86-.56,2.25-.56Zm-7.97-.84s.26-1.01-.71-1.38c-.97-.37-3.41-.92-5.75-3.09-2.34-2.17-3.35-6-3.36-7.44,0-1.44,1.63-2.03,2.33,0,.7,2.03,3.14,6.02,5.88,7.73,2.74,1.71,3.43,3.31,1.61,4.19Zm15.93,0s-.26-1.01,.71-1.38c.97-.37,3.41-.92,5.75-3.09,2.34-2.17,3.35-6,3.36-7.44,0-1.44-1.63-2.03-2.33,0-.7,2.03-3.14,6.02-5.88,7.73-2.74,1.71-3.43,3.31-1.61,4.19ZM4.45,37.1s.4,1.38,1.63,2.87c1.23,1.49,3.8,3.16,4.75,1.61,0,0-4.16-3.57-6.37-4.49Zm52.43,0s-.4,1.38-1.63,2.87c-1.23,1.49-3.8,3.16-4.75,1.61,0,0,4.16-3.57,6.37-4.49ZM8.65,27.62s.54,2.98,2.55,5.71,3.27,3.59,4.61,3.95c1.17,.31,2-.09,2.35-.58,.35-.48,.16-1.25-.7-1.43,0,0-9.17-11.42-8.81-7.65Zm44.04,0s-.54,2.98-2.55,5.71-3.27,3.59-4.61,3.95c-1.17,.31-2-.09-2.35-.58-.35-.48-.16-1.25,.7-1.43,0,0,9.17-11.42,8.81-7.65Zm-22.02,15.9c-2.21,0-4.04-2.46-5-3.73-.96-1.27-1.44-3.04-1.44-3.04-.36,1.13,0,2.71,.61,3.4s.08,1.63-1.32,.58c-1.39-1.05-1.82-2.92-1.92-5.23-.09-2.31,.51-6.93,.95-8.41,.43-1.48,.49-2.16,.49-2.16-.17,.38-1,1.12-1.44,.62-.44-.5-.22-1.31,0-2.79,.22-1.48-1.47-4.98-3.31-8.59-1.84-3.62-4.34-7.44-4.34-7.44,9.21,5.7,12.64,18.56,13.06,19.97,.42,1.4,2.44,.4,3.65,.4s3.23,1,3.66-.4c.42-1.4,3.86-14.27,13.06-19.97,0,0-2.51,3.83-4.34,7.44-1.84,3.62-3.53,7.11-3.31,8.59,.22,1.48,.44,2.29,0,2.79-.44,.5-1.27-.24-1.44-.62,0,0,.05,.68,.49,2.16,.44,1.48,1.04,6.1,.95,8.41-.09,2.31-.52,4.18-1.92,5.23-1.39,1.05-1.92,.11-1.32-.58,.61-.69,.97-2.27,.61-3.4,0,0-.49,1.77-1.44,3.04-.95,1.27-2.78,3.73-5,3.73Z"/></g><g id="i"><path class="n" d="M36.53,55.17s.52-2.74,5.44-3.78c0,0-1.07,3.12-5.44,3.78Z"/><path class="n" d="M24.81,55.17s-.52-2.74-5.44-3.78c0,0,1.07,3.12,5.44,3.78Z"/></g><g id="j"><path class="n" d="M38.27,56.2s0,.56,.43,1.06c.43,.5,1.3,1.29,1.45,1.85,0,0,1.11-1,1.31-2.21,0,0,1.62,.59,1.55,2.72,0,0,1.64-2.51,5.66-4.32,0,0,3.96-2.33,5.9-1.17,0,0-2.65,5.52-8.67,7.52,0,0-5.71,3.35-7.2,1.1,0,0-1.98-5.77-.43-6.55Z"/><path class="n" d="M23.06,56.2s0,.56-.43,1.06c-.43,.5-1.3,1.29-1.45,1.85,0,0-1.11-1-1.31-2.21,0,0-1.62,.59-1.55,2.72,0,0-1.64-2.51-5.66-4.32,0,0-3.96-2.33-5.9-1.17,0,0,2.65,5.52,8.67,7.52,0,0,5.71,3.35,7.2,1.1,0,0,1.98-5.77,.43-6.55Z"/><path class="n" d="M33.23,47.82s.13-2.01,1.62-3.69c1.49-1.68,3.54-2.36,3.54-2.36,.11-.03-1.35,5.22-5.16,6.05Z"/><path class="n" d="M28.1,47.82s-.13-2.01-1.62-3.69c-1.49-1.68-3.54-2.36-3.54-2.36-.11-.03,1.35,5.22,5.16,6.05Z"/></g><g id="k"><path class="p" d="M30.67,72.63c-.88,0-3.19,.68-5.09-.63-1.91-1.31-3.2-3.88-3.2-3.88-.24-2.31-1.18-4.14-1.18-4.14-.33,1.31-.17,2.24-.17,2.24-2.38-.57-4.35-3.02-4.35-3.02-10.86-2.36-13.43-11.98-13.43-11.98,1.82,.94,4.23,.72,4.23,.72C.12,42.94,2.13,31.28,2.13,31.28c1.63,2.04,4.2,4.22,4.2,4.22-1.62-8.29,1.15-16.01,1.15-16.01,.67,2.42,2.82,5.85,2.82,5.85,.02-3.38,.62-7.51,1.06-12.61,.44-5.1-.26-9.89-.26-9.89,2.57,.11,7.15,3.9,11.54,9.89,4.39,6,5.7,11.77,5.73,12.32,.03,.55,.3,.54,.71,.53,.41-.01,1.06-.02,1.59-.02s1.19,.01,1.59,.02c.41,.01,.67,.02,.71-.53,.03-.55,1.35-6.33,5.73-12.32,4.39-6,8.97-9.78,11.54-9.89,0,0-.7,4.79-.26,9.89,.44,5.1,1.04,9.24,1.06,12.61,0,0,2.16-3.43,2.82-5.85,0,0,2.77,7.72,1.15,16.01,0,0,2.57-2.19,4.2-4.22,0,0,2,11.66-5.35,20.65,0,0,2.41,.22,4.23-.72,0,0-2.57,9.62-13.43,11.98,0,0-1.97,2.45-4.35,3.02,0,0,.16-.93-.17-2.24,0,0-.94,1.83-1.18,4.14,0,0-1.29,2.58-3.2,3.88s-4.21,.63-5.09,.63Zm0-6.12c-.47,0-1.76-.02-2.46,.38-.7,.4-1.24,.84-.75,2.22,.49,1.38,1.5,1.96,1.5,1.96-2.03,.07-3.34-1.96-3.34-1.96-.19-1.05-1.36-2.38-1.64-4.61-.25-2.05,.16-4.1,.65-5.13,.49-1.04,.8-2.08,.8-2.08,1.11,.84,1.45,1.42,1.45,1.42,.63-5.62-6.33-9.45-8.55-10.93-2.22-1.48-4.38-3.72-4.38-3.72,3.48,9.72,6.86,10.36,8.19,11.02,1.33,.66,1.11,1.84,.24,3.64-.87,1.79-.71,2.91-.71,2.91-1.37-1.13-2.2-2.91-2.2-2.91-.41,1.19-.5,3.58-.5,3.58-2.53-2.79-4.65-3.34-4.65-3.34,.67,.83,.82,1.59,.82,1.59-4.42-1.56-7.63-6.03-7.63-6.03,2.62-.3,5.16,.8,5.16,.8-8.51-9.08-8.21-18.21-8.21-18.21,2.81,3.18,6.38,4.49,6.38,4.49-2.66-6.22-2.18-13.97-2.18-13.97,5.12,7.52,10.14,7.99,10.14,7.99-2.73-3.02-2.08-7.37-2.08-7.37,2.91-5.95-1.28-16.66-1.28-16.66-.31,2.74-1.86,5.78-1.86,5.78,.96-3.85,.37-10.63,.37-10.63,6.12,5.79,9.27,12.04,10.35,14.67,1.08,2.63,.96,5.07,.6,6.22-.37,1.15-.27,1.86-.27,1.86,.4-.28,1.79-.99,3.06-1.23,1.26-.24,1.99-.19,2.99-.19s1.73-.05,2.99,.19c1.26,.24,2.65,.96,3.06,1.23,0,0,.09-.71-.27-1.86-.37-1.15-.48-3.59,.6-6.22,1.08-2.63,4.23-8.88,10.35-14.67,0,0-.59,6.78,.38,10.63,0,0-1.55-3.03-1.86-5.78,0,0-4.19,10.71-1.28,16.66,0,0,.65,4.34-2.08,7.37,0,0,5.02-.47,10.14-7.99,0,0,.48,7.75-2.18,13.97,0,0,3.57-1.31,6.37-4.49,0,0,.3,9.13-8.21,18.21,0,0,2.53-1.1,5.16-.8,0,0-3.21,4.47-7.63,6.03,0,0,.15-.76,.82-1.59,0,0-2.12,.55-4.65,3.34,0,0-.09-2.39-.5-3.58,0,0-.83,1.78-2.2,2.91,0,0,.16-1.11-.71-2.91-.87-1.79-1.08-2.98,.24-3.64,1.33-.66,4.71-1.3,8.19-11.02,0,0-2.16,2.24-4.38,3.72-2.22,1.48-9.18,5.31-8.55,10.93,0,0,.34-.59,1.45-1.42,0,0,.31,1.05,.8,2.08,.49,1.04,.9,3.09,.65,5.13-.28,2.23-1.45,3.56-1.64,4.61,0,0-1.31,2.03-3.34,1.96,0,0,1.01-.59,1.5-1.96,.49-1.38-.04-1.82-.75-2.22-.71-.4-1.99-.38-2.46-.38Zm6.65-12.24s.39-.34,1.09-.81c.7-.47,1.72-1.07,2.98-1.61,0,0-1.61,1.79-4.07,2.41Zm-13.29,0s-.39-.34-1.09-.81c-.7-.47-1.72-1.07-2.98-1.61,0,0,1.61,1.79,4.07,2.41Z"/></g></g></svg>