<?xml version="1.0" encoding="UTF-8"?><svg xmlns="http://www.w3.org/2000/svg" viewBox="0 0 98.18 110.09"><defs><style>.d{fill:#fff;}.e{fill:#ff7a63;}.f{fill:#ff3335;}.g{fill:#f7f7f7;}</style></defs><g id="a"/><g id="b"><g id="c"><g><polygon class="f" points="89.17 101 49.09 110.09 9.01 101 0 0 98.18 0 89.17 101"/><polygon class="e" points="49.09 104.91 49.09 104.91 84.39 96.91 92.56 5.05 49.09 5.05 49.09 104.91"/><polygon class="g" points="49.03 91.87 26.63 86.2 25.26 70.66 37.94 70.22 38.41 76.68 49.15 79.4 60.26 76.82 61.43 62.4 24.53 62.4 20.65 18.97 78.09 18.97 77.02 31.09 34.46 31.09 36.17 50.28 75.4 50.28 72.08 86.57 49.03 91.87"/><g><polygon class="d" points="49.15 79.4 49.09 79.38 49.09 91.86 72.08 86.57 75.4 50.28 49.09 50.28 49.09 62.4 61.43 62.4 60.26 76.82 49.15 79.4"/><polygon class="d" points="49.09 31.09 77.02 31.09 78.09 18.97 49.09 18.97 49.09 31.09"/></g></g></g></g></svg>