<?xml version="1.0" encoding="UTF-8"?><svg xmlns="http://www.w3.org/2000/svg" viewBox="0 0 98.18 110.09"><defs><style>.d{fill:#fff;}.e{fill:#f7f7f7;}.f{fill:#f99d28;}.g{fill:#ffca3e;}</style></defs><g id="a"/><g id="b"><g id="c"><g><polygon class="f" points="89.17 101 49.09 110.09 9.01 101 0 0 98.18 0 89.17 101"/><polygon class="g" points="49.09 104.2 49.09 104.2 84.39 96.2 92.56 4.34 49.09 4.34 49.09 104.2"/><g><polygon class="d" points="53.25 95.45 53.25 84 64.84 80.95 66.79 62.49 53.79 63.14 54.52 17.21 84 17.21 82.93 29.33 66.46 29.33 66.13 48.23 80.92 47.19 76.92 90.03 53.25 95.45"/><polygon class="e" points="32.3 17.21 32.3 80.14 27.3 78.75 27.3 76.79 17.19 73.77 18.63 90.2 44.42 96.01 44.42 17.21 32.3 17.21"/></g></g></g></g></svg>