<?xml version="1.0" encoding="UTF-8"?><svg xmlns="http://www.w3.org/2000/svg" viewBox="0 0 1000 1258.44"><defs><style>.d{fill:#231f20;}</style></defs><g id="a"/><g id="b"><g id="c"><path class="d" d="M325.97,131.88c-19.57,4.05-33.61,21.3-33.61,41.29V885.35c0,15.09-1.96,67.3-93.82,79.92C99.71,978.85,0,1017.03,0,1127.02c0,101.09,99.27,131.42,167.19,131.42,89.03,0,195.93-65.34,195.93-169.66V448.52c0-18.15,12.75-33.81,30.52-37.49l499.31-103.43c18.72-3.88,36.28,10.42,36.28,29.54v425.29c0,13.67-1.96,67.3-93.82,79.92-98.83,13.58-198.54,51.76-198.54,161.75,0,101.09,99.27,131.42,167.19,131.42,86.3,0,195.93-65.34,195.93-169.66V33.95c0-21.51-19.76-37.59-40.82-33.23L325.97,131.88Z"/></g></g></svg>