<?xml version="1.0" encoding="UTF-8"?><svg xmlns="http://www.w3.org/2000/svg" viewBox="0 0 1000 605.16"><defs><style>.d{fill:#231f20;}</style></defs><g id="a"/><g id="b"><g id="c"><path class="d" d="M263.42,533.04c-10.79,0-21.6-3.94-30.11-11.89L13.97,315.95c-8.91-8.34-13.97-19.99-13.97-32.19s5.06-23.86,13.97-32.19l109.67-102.6L233.31,46.37c17.78-16.63,45.68-15.7,62.31,2.08,16.63,17.78,15.7,45.67-2.08,62.31L108.61,283.76l184.94,173.01c17.78,16.63,18.71,44.53,2.08,62.31-8.68,9.28-20.43,13.97-32.2,13.97Z"/><path class="d" d="M736.58,533.04c-11.78,0-23.52-4.69-32.2-13.97-16.63-17.78-15.7-45.67,2.08-62.31l184.94-173.01-75.26-70.41-109.67-102.6c-17.78-16.63-18.71-44.53-2.08-62.31,16.63-17.78,44.53-18.71,62.31-2.08l109.67,102.6,109.67,102.6c8.91,8.34,13.97,19.99,13.97,32.19s-5.06,23.86-13.97,32.19l-219.35,205.2c-8.5,7.95-19.32,11.89-30.11,11.89Z"/><path class="d" d="M401.85,605.16c-5.11,0-10.3-.89-15.37-2.78-22.82-8.49-34.43-33.87-25.94-56.69L552.9,28.72c8.49-22.82,33.87-34.43,56.69-25.94,22.82,8.49,34.43,33.87,25.94,56.69l-192.36,516.97c-6.6,17.75-23.43,28.72-41.32,28.72Z"/></g></g></svg>