<?xml version="1.0" encoding="UTF-8"?><svg xmlns="http://www.w3.org/2000/svg" viewBox="0 0 1000 798.51"><defs><style>.d{fill:#231f20;}</style></defs><g id="a"/><g id="b"><g id="c"><g><circle class="d" cx="741.76" cy="311.86" r="104.4"/><path class="d" d="M432.23,480.36c18.61,7.51,45.87,45.49,65.93,45.79,23.49,.35,56.31-44.32,78.75-51.28,35.87-11.13,150.18-3.66,150.18-3.66l-100.85-105.85h0l-162.58-191.61,251.16-69.78c25.67-7.13,40.11-35.82,32.26-64.09-7.85-28.26-35.03-45.39-60.69-38.26L356.27,93.34c-22.77,6.33-36.62,29.63-33.99,54.55-1.5,12.68,1.74,25.47,10.23,35.46l123.97,146.1-146.95,131.12s93.89,8.16,122.71,19.78Z"/><path class="d" d="M994.24,498.42c-39.57,39.57-112.35,58.07-164.89,47.1-43.2-9.02-77.05-28.14-122.64-28.13-35.4,0-70.17,16.67-98.87,35.71-46.05,30.57-68.74,28.88-121.47,9.88-77.65-27.99-140.65-74.91-225.83-49.36-43.77,13.13-79.97,45.75-128.76,38.01-43.19-6.85-84.7-47.76-122.46-68.1-3.15-1.7-6.26-2.76-9.33-3.53v82.49c67.22,39.64,124.1,80.44,208.31,52.63,56.66-18.71,90.32-47.8,153.61-26.93,49.25,16.25,94.45,43.01,144.37,58.67,37.09,11.64,70.25,8.3,104.83-7.21,17.65-7.92,34.11-23.56,50.22-34.25,38.87-25.8,84.53-13.53,123.79,1.86,66.76,26.16,150.58,15.74,214.87-21.93v-91.63c-1.96,1.35-3.89,2.86-5.76,4.72Z"/><path class="d" d="M829.36,690.21c-43.2-9.02-77.05-28.14-122.64-28.13-35.4,0-70.17,16.67-98.87,35.71-46.05,30.57-68.74,28.88-121.47,9.88-77.65-27.99-140.65-74.91-225.83-49.36-43.77,13.13-79.97,45.75-128.76,38.01-43.19-6.85-84.7-47.76-122.46-68.1-3.15-1.7-6.26-2.76-9.33-3.53v82.49c67.22,39.64,124.1,80.44,208.31,52.63,56.66-18.71,90.32-47.8,153.61-26.93,49.25,16.25,94.45,43.01,144.37,58.67,37.09,11.64,70.25,8.3,104.83-7.21,17.65-7.92,34.11-23.56,50.22-34.25,38.87-25.8,84.53-13.53,123.79,1.86,66.76,26.16,150.58,15.74,214.87-21.93v-91.63c-1.96,1.35-3.89,2.86-5.76,4.72-39.57,39.57-112.35,58.07-164.89,47.1Z"/></g></g></g></svg>